<?xml version="1.0" encoding="UTF-8"?>
<!-- Generator: Adobe Illustrator 15.0.2, SVG Export Plug-In . SVG Version: 6.00 Build 0)  -->
<!DOCTYPE svg PUBLIC "-//W3C//DTD SVG 1.1//EN" "http://www.w3.org/Graphics/SVG/1.1/DTD/svg11.dtd">
<svg xmlns="http://www.w3.org/2000/svg" xmlns:xlink="http://www.w3.org/1999/xlink" version="1.1" id="Layer_1" x="0px" y="0px" width="1024px" height="1024px" viewBox="0 0 1024 1024" enable-background="new 0 0 1024 1024" xml:space="preserve">
<g>
	<polygon points="222.4,344.4 129,251.2 82.4,298 222.4,438 446.2,214 399.4,167.2  "/>
	<path d="M528.6,121.8l-23,22.8C470.8,75.2,399.8,26.8,317.2,26.8H211.4C95.2,26.8,0,121.8,0,238v105.8   C0,426.4,48.4,497.6,117.8,532.4L33,617.2h124v371.6h309.6V741H590.4v247.8h309.8V617.2H1024L528.6,121.8z M502.2,344   c0,102-83,185-185,185H211.4c-102,0-185-83-185-185V238.2c0-102,83-185,185-185h105.8c101.8,0,184.8,83,185,184.8V344z" fill="#000000"/>
</g>
</svg>
